<?xml version="1.0" encoding="iso-8859-1"?>
<!-- Uploaded to: SVG Repo, www.svgrepo.com, Generator: SVG Repo Mixer Tools -->
<svg height="800px" width="800px" version="1.1" id="Layer_1" xmlns="http://www.w3.org/2000/svg" xmlns:xlink="http://www.w3.org/1999/xlink" 
	 viewBox="0 0 392.517 392.517" xml:space="preserve">
<g>
	<polygon style="fill:#FFFFFF;" points="207.187,139.725 207.187,326.424 296.916,326.424 296.916,66.157 238.54,66.157 	"/>
	<polygon style="fill:#FFFFFF;" points="95.607,66.157 95.607,326.424 185.336,326.424 185.336,139.725 153.983,66.157 	"/>
</g>
<g>
	<polygon style="fill:#FFC10D;" points="229.037,304.638 229.037,144.121 252.956,87.943 275.13,87.943 275.13,304.638 	"/>
	<polygon style="fill:#FFC10D;" points="117.393,304.638 117.393,87.943 139.566,87.943 163.486,144.121 163.486,304.638 	"/>
</g>
<path style="fill:#194F82;" d="M390.136,141.212l-73.697-92.703h-0.065c-2.004-2.521-5.042-4.202-8.469-4.202h-76.671
	c-4.396,0-8.339,2.651-10.02,6.659l-24.954,58.828l-25.018-58.699c-1.681-4.008-5.624-6.659-10.02-6.659H84.617
	c-3.491,0-6.465,1.616-8.469,4.202h-0.129L2.387,141.212c-3.491,4.331-3.103,10.602,0.84,14.545l40.469,40.469
	c5.624,5.236,13.123,3.685,16.291-1.034l13.705-17.648v159.741c0,6.012,4.848,10.925,10.925,10.925h111.644l0,0l0,0h111.58
	c6.012,0,10.925-4.848,10.925-10.925V177.608l13.705,17.648c4.008,5.301,12.283,5.301,16.291,1.034l40.469-40.469
	C393.239,151.749,393.627,145.608,390.136,141.212z M73.692,142.052l-23.337,30.061l-24.889-24.954l48.226-60.768
	C73.692,86.392,73.692,142.052,73.692,142.052z M185.336,326.424H95.607V66.157h58.44l31.354,73.568v186.699H185.336z
	 M296.916,326.424h-89.729V139.725l31.354-73.568h58.44L296.916,326.424L296.916,326.424z M342.169,172.113l-23.337-30.061V86.521
	l48.226,60.768L342.169,172.113z"/>
<g>
	<polygon style="fill:#56ACE0;" points="318.831,142.052 342.169,172.113 367.057,147.159 318.831,86.456 	"/>
	<polygon style="fill:#56ACE0;" points="50.354,172.113 73.692,142.052 73.692,86.456 25.465,147.159 	"/>
</g>
<g>
	<path style="fill:#194F82;" d="M268.665,246.521h-29.414c-6.012,0-10.925,4.848-10.925,10.925c0,6.012,4.848,10.925,10.925,10.925
		h29.414c6.012,0,10.925-4.848,10.925-10.925C279.655,251.369,274.678,246.521,268.665,246.521z"/>
	<path style="fill:#194F82;" d="M123.857,246.521c-6.012,0-10.925,4.848-10.925,10.925c0,6.012,4.848,10.925,10.925,10.925h29.414
		c6.012,0,10.925-4.848,10.925-10.925c0-6.012-4.848-10.925-10.925-10.925H123.857z"/>
	<path style="fill:#194F82;" d="M216.043,170.949c0,6.012,4.848,10.925,10.925,10.925h14.222v14.222
		c0,6.012,4.848,10.925,10.925,10.925c6.077,0,10.925-4.848,10.925-10.925v-14.222h14.222c6.012,0,10.925-4.848,10.925-10.925
		c0-6.012-4.848-10.925-10.925-10.925h-14.222v-14.222c0-6.012-4.849-10.925-10.925-10.925c-6.077,0-10.925,4.848-10.925,10.925
		v14.222h-14.222C220.892,160.024,216.043,164.937,216.043,170.949z"/>
</g>
</svg>