<!DOCTYPE svg PUBLIC "-//W3C//DTD SVG 1.1//EN" "http://www.w3.org/Graphics/SVG/1.1/DTD/svg11.dtd">
<!-- Uploaded to: SVG Repo, www.svgrepo.com, Transformed by: SVG Repo Mixer Tools -->
<svg fill="#FFFFFF" width="800px" height="800px" viewBox="0 0 96 96" xmlns="http://www.w3.org/2000/svg" stroke="#FFFFFF">
<g id="SVGRepo_bgCarrier" stroke-width="0"/>
<g id="SVGRepo_tracerCarrier" stroke-linecap="round" stroke-linejoin="round"/>
<g id="SVGRepo_iconCarrier"> <title/> <g> <path d="M84,0H12A5.9966,5.9966,0,0,0,6,6V90a5.9966,5.9966,0,0,0,6,6H84a5.9966,5.9966,0,0,0,6-6V6A5.9966,5.9966,0,0,0,84,0ZM78,84H18V12H78Z"/> <path d="M36,36H60a6,6,0,0,0,0-12H36a6,6,0,0,0,0,12Z"/> <path d="M36,60H60a6,6,0,0,0,0-12H36a6,6,0,0,0,0,12Z"/> </g> </g>
</svg>